<svg xmlns="http://www.w3.org/2000/svg" viewBox="0 0 112.26 112.26"><defs><style>.cls-1{fill:#d1d2d2;}.cls-2{fill:#1578b8;}</style></defs><title>ft-buildings</title><g id="Layer_2" data-name="Layer 2"><g id="Layer_1-2" data-name="Layer 1"><path class="cls-1" d="M3.21,56.13h0a52.92,52.92,0,0,1,105.84,0h3.21A56.13,56.13,0,0,0,0,56.13H3.21Z"/><path class="cls-2" d="M56.13,109.05A53,53,0,0,1,3.21,56.13H0a56.13,56.13,0,0,0,112.26,0h-3.21A53,53,0,0,1,56.13,109.05Z"/><path class="cls-2" d="M36.63,70.68v4.51l1.4,0,1.41,0V70.56L38,70.62Z"/><path class="cls-2" d="M36.63,62.76v4.5l1.4-.08,1.41-.07V62.55L38,62.66Z"/><path class="cls-2" d="M36.63,54.83v4.51l1.4-.12,1.41-.12V54.55L38,54.69Z"/><path class="cls-2" d="M36.63,46.9v4.51l1.4-.15,1.41-.16V46.54L38,46.72Z"/><path class="cls-2" d="M61.63,71.63V76h2.71V71.59l-1.36,0Z"/><path class="cls-2" d="M31.62,78.69v4.42h2.71V78.64l-1.37,0Z"/><path class="cls-2" d="M31.62,70.9v4.43l1.34,0,1.37,0V70.78L33,70.84Z"/><path class="cls-2" d="M36.63,78.61v4.5h2.81V78.56l-1.41,0Z"/><path class="cls-2" d="M61.63,63.75v4.42l1.35,0,1.36,0V63.65L63,63.7Z"/><path class="cls-2" d="M31.62,55.33v4.42L33,59.64l1.37-.11V55.06L33,55.19Z"/><path class="cls-2" d="M31.62,63.11v4.43L33,67.47l1.37-.08V62.92L33,63Z"/><path class="cls-2" d="M31.62,47.54V52L33,51.82l1.37-.15V47.19L33,47.36Z"/><path class="cls-2" d="M66.65,39.85v4.49L68,44.2l1.41-.13V39.54L68,39.7Z"/><path class="cls-2" d="M66.65,47.75v4.49l1.39-.1,1.41-.09V47.52L68,47.63Z"/><path class="cls-2" d="M61.63,56v4.42L63,60.32l1.36-.06V55.8L63,55.88Z"/><path class="cls-2" d="M66.65,55.66v4.49L68,60.08,69.45,60V55.49L68,55.57Z"/><path class="cls-2" d="M69.45,31.57,68,31.75l-1.39.18v4.5L68,36.27l1.41-.17Z"/><path class="cls-2" d="M61.63,40.39v4.42L63,44.68l1.36-.12V40.09L63,40.24Z"/><path class="cls-2" d="M61.63,48.18V52.6L63,52.5l1.36-.09V48L63,48.06Z"/><path class="cls-2" d="M66.65,63.56v4.49L68,68l1.41,0V63.46l-1.41,0Z"/><path class="cls-2" d="M66.65,71.56V76h2.8V71.52l-1.41,0Z"/><path class="cls-2" d="M61.63,32.59V37L63,36.87l1.36-.17V32.24L63,32.42Z"/><polygon class="cls-2" points="77.68 21.42 74.35 21.91 56.22 24.64 53.83 24.99 53.83 56.63 51.47 38.11 47.7 36.84 44.37 37.34 26.24 40.06 23.77 40.43 23.77 89.14 26.66 89.14 29.57 89.14 29.57 86.23 29.57 45.43 41.88 43.59 41.88 86.23 41.88 89.14 44.79 89.14 51.34 89.14 53.83 89.14 55.93 89.14 59.15 89.14 59.54 89.14 59.54 86.23 59.54 30.01 71.86 28.16 71.86 86.23 71.86 89.14 74.77 89.14 87.77 89.14 87.77 83.32 87.77 78.04 87.77 24.82 77.68 21.42"/></g></g></svg>