<svg xmlns="http://www.w3.org/2000/svg" viewBox="0 0 112.26 112.26"><defs><style>.cls-1{fill:#d1d2d2;}.cls-2{fill:#1578b8;}</style></defs><title>ft-carpet-cleaner</title><g id="Layer_2" data-name="Layer 2"><g id="Layer_1-2" data-name="Layer 1"><path class="cls-1" d="M3.21,56.13h0a52.92,52.92,0,0,1,105.84,0h3.21A56.13,56.13,0,0,0,0,56.13H3.21Z"/><path class="cls-2" d="M56.13,109.05A53,53,0,0,1,3.21,56.13H0a56.13,56.13,0,0,0,112.26,0h-3.21A53,53,0,0,1,56.13,109.05Z"/><path class="cls-2" d="M82.25,69.44a10.6,10.6,0,0,1,2.66.34V50.3c8.5-2.21,7.58-11.74,6.65-16.2a24.66,24.66,0,0,0-2.31-5.26C79.6,14.42,63.54,23.24,64,23.15c-11.4,5.32-18.87,22.73-18.87,22.73L29.24,82.11H20.59a1.9,1.9,0,0,0,0,3.7H42.46a1.91,1.91,0,0,0,0-3.7H34.63c6.86-15.8,15.9-36.54,16.06-36.45,6.06-14.13,15.62-17.83,15.8-18.1,15.66-7.11,19.44,5.94,19.71,6.12,2.84,6.65.35,9.91-1.29,11.22V41.51a4.28,4.28,0,0,0-4.27-4.28h-22a4.28,4.28,0,0,0-4.27,4.28V81.26a4.28,4.28,0,0,0,4.27,4.28H73.38a10.5,10.5,0,0,1,8.87-16.1Z"/><circle class="cls-2" cx="82.16" cy="79.57" r="8.57" transform="translate(-26.88 45.05) rotate(-26.52)"/></g></g></svg>