<svg xmlns="http://www.w3.org/2000/svg" viewBox="0 0 112.26 112.26"><defs><style>.cls-1{fill:#d1d2d2;}.cls-2,.cls-3{fill:#1578b8;}.cls-3{fill-rule:evenodd;}</style></defs><title>ft-checklist</title><g id="Layer_2" data-name="Layer 2"><g id="Layer_1-2" data-name="Layer 1"><path class="cls-1" d="M3.21,56.13h0a52.92,52.92,0,0,1,105.84,0h3.21A56.13,56.13,0,0,0,0,56.13H3.21Z"/><path class="cls-2" d="M56.13,109.05A53,53,0,0,1,3.21,56.13H0a56.13,56.13,0,0,0,112.26,0h-3.21A53,53,0,0,1,56.13,109.05Z"/><path class="cls-3" d="M34.1,22.92H67v4.32a9,9,0,0,1,7.88,8.89V62H71V36.13A5.16,5.16,0,0,0,67,31.08v4.4H34.1V31a5.17,5.17,0,0,0-4.45,5.11V78a5.19,5.19,0,0,0,5.16,5.17H55.93V87H34.81a9,9,0,0,1-9-9V36.13A9,9,0,0,1,34.1,27.2V22.92ZM83.69,66.4H63.81a3.48,3.48,0,0,0-3.47,3.47V89.28a3.51,3.51,0,0,0,1,2.45h0a3.46,3.46,0,0,0,2.45,1H83.69a3.48,3.48,0,0,0,3.47-3.47V69.87a3.46,3.46,0,0,0-1-2.45h0a3.51,3.51,0,0,0-2.45-1ZM55.93,74.49V72.32H43.21v2.17Zm2.21-10.07.1-.11h0a8,8,0,0,1,3.57-2H43.21v2.17ZM34.49,69.55h-1v7.82h7.82V69.55H34.49Zm5,1.89h-4v4h4v-4Zm-5-12h-1V67.3h7.82V59.47H34.49Zm5,1.9h-4v4h4v-4Zm3.74-9.53V54H64.47V51.84Zm-8.72-2.78h-1v7.83h7.82V49.06H34.49Zm5,1.9h-4v4h4V51Zm3.74-9v2.18H64.47V42Zm-8.72-2.77h-1v7.83h7.82V39.24H34.49Zm5,1.89h-4v4h4v-4ZM62.87,80l7.55,10.22a2.83,2.83,0,0,0,4.79-.38l9.7-17.34a2.83,2.83,0,0,0-5-2.75L72.37,83.28l-4.94-6.69A2.84,2.84,0,0,0,62.87,80Z"/></g></g></svg>