<svg width="113" height="113" viewBox="0 0 113 113" fill="none" xmlns="http://www.w3.org/2000/svg">
<path d="M3.21 56.13C3.21 42.0947 8.78548 28.6343 18.7099 18.7099C28.6343 8.78548 42.0947 3.21 56.13 3.21C70.1653 3.21 83.6257 8.78548 93.5501 18.7099C103.475 28.6343 109.05 42.0947 109.05 56.13H112.26C112.26 41.2434 106.346 26.9665 95.8199 16.4401C85.2935 5.91368 71.0166 0 56.13 0C41.2434 0 26.9665 5.91368 16.4401 16.4401C5.91368 26.9665 2.21828e-07 41.2434 0 56.13H3.21Z" fill="#D1D2D2"/>
<path d="M56.13 109.05C42.1012 109.029 28.6531 103.447 18.7333 93.5267C8.81344 83.6069 3.23116 70.1588 3.21 56.13H0C0 71.0166 5.91368 85.2935 16.4401 95.8199C26.9665 106.346 41.2434 112.26 56.13 112.26C71.0166 112.26 85.2935 106.346 95.8199 95.8199C106.346 85.2935 112.26 71.0166 112.26 56.13H109.05C109.029 70.1588 103.447 83.6069 93.5267 93.5267C83.6069 103.447 70.1588 109.029 56.13 109.05V109.05Z" fill="#1578B8"/>
<path d="M55.9997 62.7601C59.7276 62.7601 62.7497 59.7381 62.7497 56.0101C62.7497 52.2822 59.7276 49.2601 55.9997 49.2601C52.2718 49.2601 49.2497 52.2822 49.2497 56.0101C49.2497 59.7381 52.2718 62.7601 55.9997 62.7601Z" fill="#1578B8"/>
<path d="M55.9997 85.2632C59.7276 85.2632 62.7497 82.2411 62.7497 78.5132C62.7497 74.7853 59.7276 71.7632 55.9997 71.7632C52.2718 71.7632 49.2497 74.7853 49.2497 78.5132C49.2497 82.2411 52.2718 85.2632 55.9997 85.2632Z" fill="#1578B8"/>
<path d="M55.9997 40.261C59.7276 40.261 62.7497 37.2389 62.7497 33.511C62.7497 29.7831 59.7276 26.761 55.9997 26.761C52.2718 26.761 49.2497 29.7831 49.2497 33.511C49.2497 37.2389 52.2718 40.261 55.9997 40.261Z" fill="#1578B8"/>
</svg>
