<svg xmlns="http://www.w3.org/2000/svg" viewBox="0 0 112.26 112.26"><path fill="#d1d2d2" d="M3.21,56.13h0a52.92,52.92,0,0,1,105.84,0h3.21A56.13,56.13,0,0,0,0,56.13H3.21Z"/><path fill="#1578b8" d="M56.13,109.05A53,53,0,0,1,3.21,56.13H0a56.13,56.13,0,0,0,112.26,0h-3.21A53,53,0,0,1,56.13,109.05Z"/><path fill="#1578b8" d="M66.75,60.21a10.48,10.48,0,0,0-19.58-7.5c-2.2,5.76.3,11.48,6,13.66A10.3,10.3,0,0,0,66.75,60.21Z"/><path fill="#1578b8" d="M43.64,59.61a32.22,32.22,0,0,1-20.41-2c-1.46-.63-5.17.55-5.71,1.81C15.07,65.05,16,70.75,19.46,75.81A12,12,0,0,0,32.36,81a24.84,24.84,0,0,0,17.69-12.7A13.13,13.13,0,0,1,43.64,59.61Z"/><path fill="#1578b8" d="M53.77,43.35A33.58,33.58,0,0,1,56,22.41c.57-1.31-.74-4.82-2-5.31a16.83,16.83,0,0,0-16.43,2.06c-4.62,3.24-6.21,8-5.06,13.43A25,25,0,0,0,45.2,49.74,13.07,13.07,0,0,1,53.77,43.35Z"/><path fill="#1578b8" d="M81.08,80A24.63,24.63,0,0,0,68.6,63.44,13.19,13.19,0,0,1,60,69.86a33.38,33.38,0,0,1-2.29,20.92c-.56,1.27.83,4.75,2.08,5.23a16.61,16.61,0,0,0,16.8-2.37C81,90.21,82.42,85.46,81.08,80Z"/><path fill="#1578b8" d="M94.59,37.73A12,12,0,0,0,81.91,32.1,24.71,24.71,0,0,0,63.73,44.89a13.17,13.17,0,0,1,5.56,6,12.64,12.64,0,0,1,.9,2.66,32.71,32.71,0,0,1,20.86,2.22c1.3.56,4.78-.76,5.27-2A16.77,16.77,0,0,0,94.59,37.73Z"/></svg>