<svg xmlns="http://www.w3.org/2000/svg" viewBox="0 0 112.26 112.26"><defs><style>.cls-1{fill:#d1d2d2;}.cls-2{fill:#1578b8;}</style></defs><title>ft-gears</title><g id="Layer_2" data-name="Layer 2"><g id="Layer_1-2" data-name="Layer 1"><path class="cls-1" d="M3.21,56.13h0a52.92,52.92,0,0,1,105.84,0h3.21A56.13,56.13,0,0,0,0,56.13H3.21Z"/><path class="cls-2" d="M56.13,109.05A53,53,0,0,1,3.21,56.13H0a56.13,56.13,0,0,0,112.26,0h-3.21A53,53,0,0,1,56.13,109.05Z"/><path class="cls-2" d="M50,68.93a14.75,14.75,0,0,0-1.55-4.71l2.83-1.51a17.92,17.92,0,0,0-3.71-4.77l-2.17,2.37a14.62,14.62,0,0,0-4.17-2.69l1.25-2.95a17.83,17.83,0,0,0-5.89-1.37l-.19,3.21c-.28,0-.57,0-.86,0a14.83,14.83,0,0,0-4.07.59L30.53,54a17.73,17.73,0,0,0-5.44,2.65L27,59.23a14.59,14.59,0,0,0-3.48,3.53l-2.64-1.84a18.05,18.05,0,0,0-2.56,5.48l3.1.85a14.79,14.79,0,0,0-.53,3.85c0,.36,0,.72.06,1.08l-3.2.23a17.83,17.83,0,0,0,1.46,5.88L22.12,77a14.53,14.53,0,0,0,2.74,4.12l-2.34,2.2A17.55,17.55,0,0,0,27.35,87l1.47-2.85a14.36,14.36,0,0,0,4.73,1.48l-.42,3.18a18.59,18.59,0,0,0,2.36.16,18,18,0,0,0,3.67-.38l-.66-3.13a14.53,14.53,0,0,0,4.61-1.85l1.67,2.74a17.78,17.78,0,0,0,4.55-4l-2.48-2A14.84,14.84,0,0,0,49.27,76l3,1.07a17.76,17.76,0,0,0,.82-8.59Zm-9.31,6.33-.14-.11a6.25,6.25,0,0,1-1.64,1.44l.09.16a6.56,6.56,0,0,1-2.08.85l0-.2a6.51,6.51,0,0,1-2.2.08l0,.17A6.52,6.52,0,0,1,32.47,77l.08-.15a6.18,6.18,0,0,1-1.74-1.31l-.14.13a6.43,6.43,0,0,1-1.25-1.88l.17-.08a6.42,6.42,0,0,1-.53-2.11H28.9a4.36,4.36,0,0,1-.06-.49,6.34,6.34,0,0,1,.27-1.75l.16,0a6.33,6.33,0,0,1,.92-2L30,67.31a6.53,6.53,0,0,1,1.59-1.6l.1.15a6.17,6.17,0,0,1,2-1l0-.16a6.62,6.62,0,0,1,1.84-.3c.14,0,.26,0,.4,0v.17a6.43,6.43,0,0,1,2.12.49l.08-.18A6.6,6.6,0,0,1,40,66.21l-.12.13a6.58,6.58,0,0,1,1.35,1.72l.14-.08A6.53,6.53,0,0,1,42,70.11l-.17,0a6.53,6.53,0,0,1-.3,3.12l.17.06A6.69,6.69,0,0,1,40.64,75.26Z"/><path class="cls-2" d="M70.24,55.32a9.16,9.16,0,1,0-9.16-9.16A9.17,9.17,0,0,0,70.24,55.32Z"/><path class="cls-2" d="M93.9,54.55a24.92,24.92,0,0,0,1.44-8.39,25.79,25.79,0,0,0-.27-3.73L91.6,43a21.44,21.44,0,0,0-2.29-7l3.08-1.65a25.11,25.11,0,0,0-5.22-6.72L84.8,30.21a21.71,21.71,0,0,0-6.16-4L80,23a24.93,24.93,0,0,0-8.3-1.92l-.2,3.5c-.42,0-.84-.07-1.26-.07a21.74,21.74,0,0,0-6,.87l-1-3.35a24.72,24.72,0,0,0-7.65,3.73l2,2.84a22,22,0,0,0-5.14,5.22l-2.87-2A25,25,0,0,0,46,39.56l3.39.92a21.29,21.29,0,0,0-.79,5.68c0,.54,0,1.07.09,1.61L45.2,48a25.1,25.1,0,0,0,2.07,8.26l3.2-1.41A21.48,21.48,0,0,0,54.53,61L52,63.38a25,25,0,0,0,6.8,5.12l1.6-3.12a21.35,21.35,0,0,0,7,2.19L66.92,71a25.07,25.07,0,0,0,8.49-.32l-.71-3.4a21.52,21.52,0,0,0,6.8-2.73l1.84,3A25.16,25.16,0,0,0,89.73,62L87,59.77a21.46,21.46,0,0,0,3.58-6.39Zm-10-8.39A13.65,13.65,0,1,1,70.24,32.51,13.67,13.67,0,0,1,83.88,46.16Z"/></g></g></svg>