<svg xmlns="http://www.w3.org/2000/svg" viewBox="0 0 112.26 112.26"><defs><style>.cls-1{fill:#d1d2d2;}.cls-2{fill:#1578b8;}</style></defs><title>ft-handshake</title><g id="Layer_2" data-name="Layer 2"><g id="Layer_1-2" data-name="Layer 1"><path class="cls-1" d="M3.21,56.13h0a52.92,52.92,0,0,1,105.84,0h3.21A56.13,56.13,0,0,0,0,56.13H3.21Z"/><path class="cls-2" d="M56.13,109.05A53,53,0,0,1,3.21,56.13H0a56.13,56.13,0,0,0,112.26,0h-3.21A53,53,0,0,1,56.13,109.05Z"/><path class="cls-2" d="M80.88,65.53A15.85,15.85,0,0,0,82,64.19l1.64,3.65,14.6-6.55-12.13-27L71.54,40.85l.9,2L70,42.2h0l-.2,0-1.37-.36a5.05,5.05,0,0,0-1.2-.15c-3.85-.64-10.85-1.21-15.38,1.85-.43.29-.88.56-1.33.82a4.8,4.8,0,0,0-4-.88l-5.87,1.51-.45-.27,1.72-3.81L27.26,34.29l-12.13,27,14.59,6.55,1.62-3.6a17.09,17.09,0,0,0,2.5,3,4.17,4.17,0,0,0,3.39,6.61,3.9,3.9,0,0,0,.59,0,4,4,0,0,0,1-.3,3.66,3.66,0,0,0,0,.87A4.2,4.2,0,0,0,43,78a4,4,0,0,0,.6,0,4,4,0,0,0,1-.3,4.17,4.17,0,0,0,4.16,4.46,4.1,4.1,0,0,0,3.53-2l5.9,3.56a3,3,0,0,0,3.11-5.18l-.07,0c.35-.1.66-.25,1-.38l3,1.83a3,3,0,0,0,4.15-1,3,3,0,0,0,.35-2.29,3.05,3.05,0,0,0-1.38-1.86l-.69-.42.66-.54,2.72,1.64a3,3,0,0,0,1.56.44,3.06,3.06,0,0,0,2.6-1.47,3,3,0,0,0-1-4.09l.78-.5,1.26.75a2.91,2.91,0,0,0,1.55.44,3,3,0,0,0,2.39-4.87l.38-.35Zm-52.5-1.21L18.66,60,28.6,37.82l9.73,4.36Zm56.41-26.5L94.73,60,85,64.32,75.06,42.18ZM53.94,45.07c.29-.13.59-.23.89-.33s.64-.22,1-.31.61-.15.92-.21.75-.14,1.13-.19.54-.09.81-.11c.61-.06,1.22-.1,1.83-.11h.16a35,35,0,0,1,6.18.49h.06c1.19.2,2,.39,2.27.45l4.46,1.18.15-.09,7,15.54A14.85,14.85,0,0,1,79,63.69l-.23.23a7.68,7.68,0,0,1-.67.61L60.21,53.78l-1-.71c-.42-.12-.79-.19-1.16-.27l0,0-.33-.05-.36-.06a9,9,0,0,0-1-.12l-.34,0c-.31,0-.61,0-.89,0H54.9a8.36,8.36,0,0,0-1.93.38L52.8,53l-.68.25-.24.1-.61.28-.93.43c-2.9,1.32-5.21,1.33-6.62.74a3,3,0,0,1-.74-.44,1.81,1.81,0,0,1-.21-.18L42.6,54a1.85,1.85,0,0,1-.27-.47c-.13-.36-1-3.27.43-3.56a29.86,29.86,0,0,0,9.59-4A9.62,9.62,0,0,1,53.94,45.07ZM37.55,71.93A2.26,2.26,0,0,1,35,70a2.21,2.21,0,0,1,.42-1.67,2.27,2.27,0,0,1,1.49-.88,1.77,1.77,0,0,1,.32,0,2.25,2.25,0,0,1,.31,4.48ZM43.33,76a2.26,2.26,0,0,1-2.12-3.58,2.21,2.21,0,0,1,1.49-.87l.32,0A2.25,2.25,0,0,1,43.33,76Zm5.78,4.12a2.25,2.25,0,0,1-.63-4.46l.32,0a2.25,2.25,0,0,1,.31,4.48Z"/></g></g></svg>