<svg xmlns="http://www.w3.org/2000/svg" viewBox="0 0 727 684.2"><defs><style>.cls-1{fill:#2e71ac;}</style></defs><title>icon</title><g id="Layer_2" data-name="Layer 2"><g id="App_Icon_Kit_A" data-name="App Icon Kit A"><g id="App_Icon_and_Badge_-_Main" data-name="App Icon and Badge - Main"><path class="cls-1" d="M727,645.2V479.36c-26.12-7.1-53.74-16-83.44-26.73l-33.75-12.18-6.79,8c-18.44,21.4-49.93,36.53-91.85,43.84-22.1,3.83-67.15,2.61-96.56-2.61C360.86,480.11,281.18,456.28,225,433c-15.31-6.44-29.05-12-30.62-12.53-1.91-.52-4.7,2.61-9.39,10.79-14.62,24.7-34.45,44-61.41,59.32-24.88,14.27-55.15,23.66-99.51,31L.57,525.34V645.2Z"/><path d="M115.1,460.4a224.85,224.85,0,0,0,39.26-28.64l9.74-11.37V378.53c0-40.54.17-44.36,3.13-47,2.79-2.61,8-3,36.54-3,31.14,0,33.57-.17,36.88-3.48s3.48-5.74,3.48-65.24S244,198,240.65,194.64s-5.74-3.48-38.1-3.48c-29.92,0-34.8-.34-36.88-2.95-1.74-2.09-2.44-8.7-2.44-24.36,0-19.48.35-21.92,3.31-24.18,2.78-1.91,15.48-2.44,71.67-2.44,37.58,0,69.59-.52,71.15-1,7.14-2.78,7.83-8.18,7.83-68.2,0-53.93-.17-57.58-3.3-61.41l-3.31-4.17L159.06,1.89C9.1,1.54,7.53,1.54,4.05,5S.57,9.89.57,251.18V490.65l23.49-3.83C63.52,480.32,91.82,472.16,115.1,460.4Z"/><path d="M342,138.28l49.93.52,50.1.35.35,156.22c.48,48.4,1.8,111.68,2.45,163.24,24.57,1.87,51,1.64,66.37-1,41.92-7.3,73.41-22.44,91.85-43.84l2.73-3.21c0-41.36-.72-96.46-.56-135.53.17-92.55.86-131.86,2.26-133.43,1.56-1.91,12.87-2.43,51.84-2.78l49.75-.52.53-67c.17-36.88,0-68-.53-69.42-.87-2.08-19-2.26-126.47-1.39C513.5,1.19,431,1.71,399,1.71H341.1l.35,68.2Z"/><path class="cls-1" d="M697.4,684.2H30.6C14.25,684.2,0,671,0,654.6L1,544.2H727V654.6A29.6,29.6,0,0,1,697.4,684.2Z"/></g></g></g></svg>