<svg id="logo-simple" 
  xmlns="http://www.w3.org/2000/svg" viewBox="-1348 -1057 1682 627.37">
  <defs>
    <style>
      .cls-1 {
        fill: #2e71ac;
      }
    </style>
  </defs>
  <path fill="currentColor" id="path" d="M127.5-626.8c-.3.7-.4,37.7-.3,82.3l.3,81h41l.3-48.3c.2-52.5,0-50.2,5.7-48.8l2.5.6.2,48.3.3,48.2h39V-515c0-46.9-.2-52.1-1.8-58.2-4.3-15.6-16.5-22-33.6-17.6-4.2,1-8.3,2-9.1,2.1-1.3.2-1.6-2.7-2-19.3l-.5-19.5-20.8-.3C132.7-628,127.8-627.8,127.5-626.8Z" transform="translate(-1348 -429.13)"/>
  <path fill="currentColor" id="path-2" data-name="path" d="M.5-623.7C.2-623,.1-613.2.2-602l.3,20.5,15.2.3,15.3.3.2,58.7.3,58.7h54l.3-58.7.2-58.7,15.8-.3,15.7-.3v-43l-58.3-.3C12.5-625,.8-624.8.5-623.7Z" transform="translate(-1348 -429.13)"/>
  <path fill="currentColor" id="path-18" d="M878.521,1372.683l-.61,0c-17.313,0-28.319-3.619-36.8-12.1-10.061-10.061-11.6-18.514-11-60.3.4-26.722.609-29.624,2.5-34.5,5.275-13.24,15.952-20.294,33.6-22.2a86.806,86.806,0,0,1,8.734-.451c21.871,0,38.718,8.58,45.066,22.951,2.3,5.29,4.093,17.926,3.7,26l-.3,6-24.3.3-24.2.2.2,20.3.3,20.2,2.3.3a8.159,8.159,0,0,0,1.217.1c3.633,0,4.983-3.144,4.983-11.6v-8.3l18.8.2,18.7.3.3,10.4c.3,12.142-1.853,20.337-7.2,27.4C906.477,1368.394,896.05,1372.683,878.521,1372.683Zm-1.17-103.986a3.793,3.793,0,0,0-2.778.987c-.788.844-.958,2.294-.958,8.165V1285H881.5v-7.265c0-7-.058-7.378-1.238-8.165A5.008,5.008,0,0,0,877.351,1268.7Z" transform="translate(-1952.91 -2263.711)"/>
  <path fill="currentColor" id="path-3" data-name="path" d="M727.7-448.3c-.4.3-.7,17.4-.7,37.9v37.2l-6.6-3.5c-9-4.8-15.3-6.4-26-6.5-15.2-.1-27.9,4.9-38.4,15.3-6.4,6.3-12.2,16.8-14,25.2-.7,3.7-1,26.8-.8,75.3.3,64.7.4,70.1,2.1,73.1,2.3,4.4,4.8,5.8,17.5,10.5,38.3,14.2,62.7,20.1,89.6,21.7,12.2.7,32.1-.1,42.6-1.7l4.5-.7v-284l-34.6-.3C743.9-448.9,728.1-448.7,727.7-448.3Zm-3.8,130.9c2.1,2.6,2.1,3.6,2.1,51.8v49.1l-3.1,3.2c-3.3,3.6-5.9,4.1-8.3,1.7-1.4-1.4-1.6-7.6-1.6-53,0-33.6.4-52.2,1-53.5C715.6-321.1,721.3-320.7,723.9-317.4Z" transform="translate(-1348 -429.13)"/>
  <path fill="currentColor" id="path-4" data-name="path" d="M199.7-447.3c-.4.3-.7,58.8-.7,130,0,102.6.3,129.5,1.3,129.8,4.1,1.5,65.5,10.6,69.4,10.3l4.8-.3v-270l-37.1-.3C217-447.9,200.1-447.7,199.7-447.3Z" transform="translate(-1348 -429.13)"/>
  <path fill="currentColor" id="path-5" data-name="path" d="M2-441c-2,2-2,2.8-2,141.5V-160H2.8c5.2,0,31.9-5.9,40.8-9.1a129.141,129.141,0,0,0,44.8-26.6l5.6-5.2v-25.4c0-23.3.1-25.5,1.8-27,1.6-1.5,4.6-1.7,21-1.7,17.9,0,19.3-.1,21.2-2s2-3.3,2-37.5-.1-35.6-2-37.5-3.3-2-21.9-2c-17.2,0-20-.2-21.2-1.7-1-1.2-1.4-5-1.4-14,0-11.2.2-12.6,1.9-13.9,1.6-1.1,8.9-1.4,41.2-1.4,21.6,0,40-.3,40.9-.6,4.1-1.6,4.5-4.7,4.5-39.2,0-31-.1-33.1-1.9-35.3l-1.9-2.4-87.1-.3C4.9-443,4-443,2-441Z" transform="translate(-1348 -429.13)"/>
  <path fill="currentColor" id="path-6" data-name="path" d="M861.5-441.9c-.3.8-.4,18.7-.3,39.9l.3,38.5,28.6.3c22.4.2,28.9.5,29.8,1.6.8.9,1.2,23.5,1.3,76.7l.3,75.4,4.3,2.3c7.3,4.1,23.1,10.2,35.2,13.7,18.5,5.3,43.6,10.6,48.8,10.3l4.7-.3.3-89.7.2-89.8,28.8-.2,28.7-.3.3-39.3.2-39.2h-33.3c-18.4,0-65.8-.3-105.5-.7C872.4-443.2,862-443.1,861.5-441.9Z" transform="translate(-1348 -429.13)"/>
  <path fill="currentColor" id="path-7" data-name="path" d="M346.4-383c-14.1,1.5-21.6,4.3-31.2,11.9-5.8,4.6-14.4,15.7-19,24.3-5.4,10.3-5.7,14.2-5.7,82.8,0,65.9,0,66,4.7,78.7,2.3,6.3,3.2,6.4,14.8,3.2,15.4-4.2,28-12.7,33.7-22.8,1.5-2.5,2.8-4.8,2.9-5,.2-.1,10.7,3.6,23.4,8.3,24,9,52.8,18.1,66.9,21.1,9.7,2.1,9.1,2.6,12.1-9,1.2-4.4,2.8-10.3,3.6-13,1.3-4.3,1.5-14.1,1.2-67.5-.3-62.4-.3-62.5-2.6-69a75.743,75.743,0,0,0-17.6-27.5c-8.1-8-16.4-12.8-25.7-14.9C400.1-383.2,358.3-384.3,346.4-383Zm30.8,64.7c1.7,1.5,1.8,4.4,1.8,50.8v49.1l-2.8,2.7c-3.2,3-7.2,3.5-9.6,1.1-1.4-1.4-1.6-7.4-1.6-51.5,0-32.6.4-50.7,1-52C367.4-320.6,374.5-320.7,377.2-318.3Z" transform="translate(-1348 -429.13)"/>
  <path fill="currentColor" id="path-8" data-name="path" d="M527-383c-13.2.9-19.5,2.3-28.8,6.6-16.1,7.3-27.8,25.1-32.2,48.9-.8,4.1-1,25.3-.8,67.5l.3,61.5,2.8,8a84.022,84.022,0,0,0,5,12c2,3.5,2.9,4.1,7.7,5.3,7.1,1.6,33.1,1.8,43.5.3,30.8-4.6,55.5-17.8,70.6-37.8,2.3-3.2,4.6-6.2,5-6.7.4-.4,3.3,1.1,6.5,3.5,6.8,5,19.4,12.9,20.6,12.9.5,0,.7-30.5.6-67.8l-.3-67.9-4.4-8.9c-3.7-7.5-6-10.4-14.5-18.9-14.1-14-18.8-16.4-34.9-17.5C552.7-383.5,537.9-383.8,527-383Zm24.3,64.4c1.6,1.2,1.7,4.9,1.7,51.9v50.6l-2.2,1.5a8.874,8.874,0,0,1-8.9.6c-1.8-1-1.9-2.7-1.9-52.3,0-38.6.3-51.6,1.2-52.5C542.8-320.4,549.1-320.3,551.3-318.6Z" transform="translate(-1348 -429.13)"/>
  <path fill="currentColor" id="path-9" data-name="path" d="M1140.4-382.9c-36.9,2.8-59.3,18.5-67.1,46.9-1.6,5.9-1.8,11.9-1.8,64.5v58l2.7,11.4c1.5,6.3,3.2,11.9,3.7,12.4,1.1,1.1,16.4-4.9,34.4-13.6l12.9-6.2,6.1,3.4c29.8,16,51.2,26.1,63.7,30,7.4,2.4,15.6,5.1,18.2,6.1,4.6,1.8,4.6,1.8,6.5-.3,3.3-3.7,4.9-6.8,9.7-18.9,4.1-10.3,4.8-13.1,5.6-22.7a130.551,130.551,0,0,0,0-19.8c-.5-4.8-1-9.1-1-9.4-.1-2.2-7.1-2.8-36.7-3l-31.8-.1-.3,15.3c-.2,14.1-.4,15.5-2.4,17.6a7.072,7.072,0,0,1-9.6.7l-2.2-1.5V-283h85.7l.8-9.3c1.7-22.1-.6-37.5-7.9-52.2-9.3-18.8-25.2-30.7-47.9-36-5.4-1.2-28.9-3.8-30.7-3.3C1150.7-383.8,1146-383.4,1140.4-382.9Zm21.4,48.5c2.1,1.4,2.2,2.2,2.2,14.5V-307h-14v-12.7c0-10.4.3-13,1.7-14.5C1153.7-336.4,1158.8-336.6,1161.8-334.4Z" transform="translate(-1348 -429.13)"/>
  <path fill="currentColor" id="path-10" data-name="path" d="M1316.6-382.9c-28.9,3.1-52,16.9-61.5,36.9-2.5,5.3-2.6,6.2-2.6,23.6l-.1,18.2,32.6.7c17.9.3,33.2.7,34,.8,1.2.2,1.5-1.5,1.5-9.6,0-8.6.2-10,1.9-11.3,2.4-1.7,9.7-1.9,11.4-.2,1.6,1.6,1.5,14.6-.1,17.5-3.3,5.9-18.8,14.3-39.1,21.2-16.1,5.6-20.8,8.3-30.1,17.6-13.7,13.7-16.4,22.7-16.5,53.8,0,22,.6,25,7.6,39l3.6,7,4.8-.6c6.2-.7,18.1-5.7,26.2-10.9a92.933,92.933,0,0,0,14-12l7.7-7.9,11.3,4.4c28.1,11.1,56.9,17.7,84.4,19.5,11,.7,11.7.6,12.9-1.3,3.3-5,5-20.3,3.6-31.4-1-8-1.8-9.1-6.8-9.1a17.477,17.477,0,0,1-5.7-1l-2.5-.9-.3-59.3-.3-59.3-3.1-6.5c-8.3-17.5-25.5-30.9-46.5-36.1-6.4-1.6-29.5-4.2-33.4-3.7C1325-383.8,1321-383.4,1316.6-382.9Zm18.2,153.3c.2,15.3-.1,22.3-.9,23.2-1.2,1.5-8.6,1.9-10.7.6-.9-.7-1.2-5.4-1-20.2l.3-19.4,4.4-3.3C1334.5-254.5,1334.5-254.5,1334.8-229.6Z" transform="translate(-1348 -429.13)"/>
  <path fill="currentColor" id="path-11" data-name="path" d="M1436.7-383.3c-.4.3-.7,46.9-.7,103.5,0,85.1.2,103,1.3,103.4,2.4.9,15.1-2.3,26.3-6.7,12.9-4.9,36.1-15.8,40.4-18.9l3-2.1V-315.9l2.2-1.5a8.346,8.346,0,0,1,11.1,1.2l2.7,2.8v47c0,43.6.1,47.2,1.8,48.6,3,2.5,22.2,14.4,33.7,20.7,10.7,6,29.2,14.3,34.8,15.6l2.7.7V-315.9l2.2-1.5c3.3-2.3,8.1-2,10.6.7l2.2,2.3.2,67.9.3,67.9,8.5,1.8a112.826,112.826,0,0,0,17.5,1.8c7.7.2,10.2-.3,17.3-2.8,10.2-3.8,18.9-9,23.6-14.2l3.6-4v-78.1c0-55.9-.3-79.3-1.2-82.6-1.6-6.5-10.1-14.7-21-20.2-9.8-4.9-16.6-6.2-28.2-5-13.4,1.3-17.3,2.7-27.3,9.5-5.1,3.5-9.9,6.4-10.8,6.4-.8,0-3.6-1.9-6.3-4.3-11.5-10.2-16.1-12.2-31-13.3-14.8-1.1-25.4,2.2-36.2,11.1-7.2,6-9.5,5.8-12.7-1-1.3-2.8-2.9-6.1-3.6-7.5l-1.3-2.5-32.5-.3C1452-383.9,1437.1-383.7,1436.7-383.3Z" transform="translate(-1348 -429.13)"/>
  <path id="path-12" data-name="path" class="cls-1" d="M106.5-195.5c-8.4,14.2-19.8,25.3-35.3,34.1-14.3,8.2-31.7,13.6-57.2,17.8L.5-141.4V-.5h1681l.3-85.8c.1-47.1,0-85.7-.3-85.7a47.23,47.23,0,0,0-5.8,3.5c-16.4,11.1-42.5,15.2-65.7,10.5-22.8-4.6-51.4-17.6-74.6-33.7-5.1-3.4-10-6.3-11-6.3-.9,0-7,4-13.5,8.9-18.9,14.3-35.7,22.4-57.4,27.6-14.3,3.5-24.5,4.5-45,4.5-17.3,0-18.7-.2-36.5-4-21.2-4.6-27-6.4-43-13.2-6.3-2.6-12-4.8-12.7-4.8s-5.2,3.3-9.9,7.4c-10,8.6-24.2,16.4-35.9,19.8-10.7,3-35.4,3.3-48.5.5-26.8-5.7-59.3-18.7-85.2-34-4-2.3-8.1-4.6-9-4.9-1-.4-5.6,1.2-12,4.4-29.9,14.7-56.3,20.8-89.6,20.8-40,0-80-11-111.4-30.7A15.175,15.175,0,0,0,909-198c-1.1,0-8.4,4.7-16.3,10.4-17.1,12.5-28.1,18.9-44.1,25.7-26.3,11.1-49.5,15.8-82.1,16.6-15.2.4-23,.1-32.5-1.1-40.1-5.3-80.3-19.7-117.2-41.9L604.1-196l-11.3,11.3c-12.9,12.9-21.2,18.1-36.7,23.3-13.9,4.7-27.4,6.4-49.8,6.4-40.5,0-82.4-8.7-136.2-28.2l-19.4-7-3.9,4.6c-10.6,12.3-28.7,21-52.8,25.2-12.7,2.2-38.6,1.5-55.5-1.5-30.9-5.5-76.7-19.2-109-32.6-8.8-3.7-16.7-6.9-17.6-7.2C110.8-202,109.2-200.2,106.5-195.5Z" transform="translate(-1348 -429.13)"/>
</svg>
