<svg xmlns="http://www.w3.org/2000/svg" viewBox="0 0 112.26 112.26"><defs><style>.cls-1{fill:#d1d2d2;}.cls-2{fill:#1578b8;}</style></defs><title>ft-mold</title><g id="Layer_2" data-name="Layer 2"><g id="Layer_1-2" data-name="Layer 1"><path class="cls-1" d="M3.21,56.13h0a52.92,52.92,0,0,1,105.84,0h3.21A56.13,56.13,0,0,0,0,56.13H3.21Z"/><path class="cls-2" d="M56.13,109.05A53,53,0,0,1,3.21,56.13H0a56.13,56.13,0,0,0,112.26,0h-3.21A53,53,0,0,1,56.13,109.05Z"/><circle class="cls-2" cx="76.36" cy="30.44" r="9.86"/><circle class="cls-2" cx="37.78" cy="76.63" r="7"/><circle class="cls-2" cx="36.99" cy="32.51" r="3.55"/><circle class="cls-2" cx="72.44" cy="81.29" r="11.67"/><circle class="cls-2" cx="31.22" cy="49.07" r="5.77"/><circle class="cls-2" cx="43.51" cy="56.96" r="4.51"/><path class="cls-2" d="M76.36,41.29A10.87,10.87,0,0,1,65.51,30.44a11.35,11.35,0,0,1,.1-1.44A14.33,14.33,0,1,0,80.84,43.29a14.78,14.78,0,0,0-.28-2.84A10.86,10.86,0,0,1,76.36,41.29Z"/><path class="cls-2" d="M76.36,39.29A8.84,8.84,0,0,0,80,38.5,14.3,14.3,0,0,0,67.63,29a9.38,9.38,0,0,0-.12,1.42A8.86,8.86,0,0,0,76.36,39.29Z"/></g></g></svg>