<svg xmlns="http://www.w3.org/2000/svg" viewBox="0 0 112.26 112.26"><defs><style>.cls-1{fill:#d1d2d2;}.cls-2{fill:#1578b8;}</style></defs><title>ft-pipe-break</title><g id="Layer_2" data-name="Layer 2"><g id="Layer_1-2" data-name="Layer 1"><path class="cls-1" d="M3.21,56.13h0a52.92,52.92,0,0,1,105.84,0h3.21A56.13,56.13,0,0,0,0,56.13H3.21Z"/><path class="cls-2" d="M56.13,109.05A53,53,0,0,1,3.21,56.13H0a56.13,56.13,0,0,0,112.26,0h-3.21A53,53,0,0,1,56.13,109.05Z"/><path class="cls-2" d="M48.47,86h0c-1-3.57-4-8-4.69-8.94-.07-.1-.12-.06-.12-.06-.54.78-3.7,5.36-4.72,9a9.53,9.53,0,0,0-.15,1.94l0,.34v0h0a4.86,4.86,0,0,0,3.84,4.47,5.53,5.53,0,0,0,1.39.11,4.87,4.87,0,0,0,4.52-4.58h0a.69.69,0,0,0,0-.13v-.09A9.39,9.39,0,0,0,48.47,86Zm-6.91-.77c.12,2-.74,1.53-.75,1.53h0c-1.93-1.89,2.52-7.35,2.52-7.35A13.44,13.44,0,0,0,41.56,85.19Z"/><path class="cls-2" d="M44.28,72.08,41,67.22,44.28,64l-1.83-4.8h0c-1.72-.74-2.79-2.52-2.8-4.94,0-5.06,0-10.11,0-15.16,0-2.91,0-2.91,2.77-3.66V32h-21v3.89c3.1-.25,3.1-.25,3.11,2.83,0,5.57-.1,11.14,0,16.71a19.7,19.7,0,0,0,15.7,19Z"/><path class="cls-2" d="M90.2,70.53c.06-5.51.16-11,0-16.52C89.92,45.6,86,39.32,78.25,36s-15-1.94-21.32,3.64c-4.43,3.92-6.18,9.09-6.35,14.93a4.79,4.79,0,0,1-3.79,4.89l1.68,3.71-4,4.19,3.37,5.13-4.08,2.18a19.51,19.51,0,0,0,12.08-2.57c6.58-3.83,9.73-9.79,10-17.37.1-3.23,2.12-5.34,4.79-5.24s4.5,2.28,4.52,5.51c0,4.73,0,9.46,0,14.19v3.91l-2.9.35V77H92.84V73.18C90.11,74,90.18,72.35,90.2,70.53Z"/></g></g></svg>