<svg xmlns="http://www.w3.org/2000/svg" viewBox="0 0 113.32 113.32"><defs><style>.cls-1{fill:#1578b8;}.cls-2{fill:#d1d2d2;}</style></defs><title>ft-person-suit</title><g id="Layer_2" data-name="Layer 2"><g id="Layer_1-2" data-name="Layer 1"><path class="cls-1" d="M42.53,46c2,6.38,5.87,8.92,12,11.1a7.42,7.42,0,0,0,3.09.28c5.62-.56,11.15-6.19,12.75-11.43a5.14,5.14,0,0,0,2.24-2.71,13.54,13.54,0,0,0,.76-5.16v-.67L72.78,37a7.33,7.33,0,0,0-.63-.4c1.1-8.1-.39-13.51-4.54-16.55C61.49,15.61,50,15.65,44,20.59c-3.88,3.18-4.91,7.32-3.68,16.24A2.2,2.2,0,0,0,40,37l-.56.37v.67a13.48,13.48,0,0,0,.79,5.24A5,5,0,0,0,42.53,46Z"/><path class="cls-1" d="M79.77,58.69l-6.69,0a8.67,8.67,0,0,1-4.5-.6L60.84,75.86,58.78,64.44l1.52-.7,0-1.7H53.72l0,1.7,1.52.7L53,76.37l-9-19a5.35,5.35,0,0,1-4.94,1.68l-7.21,0C24,65.91,22.57,79.34,22.41,87.21a9.29,9.29,0,0,0,2.72,1.69h0l.1,0c.52.23,1.11.44,1.71.64h0s21.61,8,52.7.85v0c1.48-.31,2.85-.65,4.09-1h0l.7-.22.17,0h0a17.32,17.32,0,0,0,4.33-2C89.88,78.25,85.93,64.52,79.77,58.69Z"/><path class="cls-2" d="M3.24,56.66h0a53.42,53.42,0,0,1,106.84,0h3.24A56.66,56.66,0,0,0,0,56.66H3.24Z"/><path class="cls-1" d="M56.66,110.08A53.48,53.48,0,0,1,3.24,56.66H0a56.66,56.66,0,0,0,113.32,0h-3.24A53.48,53.48,0,0,1,56.66,110.08Z"/></g></g></svg>