<svg xmlns="http://www.w3.org/2000/svg" viewBox="0 0 112.26 112.26"><defs><style>.cls-1{fill:#1578b8;}.cls-2{fill:#d1d2d2;}</style></defs><title>ft-sewer-lid</title><g id="Layer_2" data-name="Layer 2"><g id="Layer_1-2" data-name="Layer 1"><path class="cls-1" d="M56.13,12.87A43.09,43.09,0,1,0,99.22,56,43.09,43.09,0,0,0,56.13,12.87Zm11.8,15a7.39,7.39,0,1,1-7.39,7.39A7.38,7.38,0,0,1,67.93,27.84Zm-23.76,0a7.39,7.39,0,1,1-7.38,7.39A7.39,7.39,0,0,1,44.17,27.84Zm-19,28.43a7.39,7.39,0,1,1,7.38,7.39A7.38,7.38,0,0,1,25.18,56.27Zm19,28.93a7.39,7.39,0,1,1,7.39-7.39A7.38,7.38,0,0,1,44.17,85.2Zm6.76-31.88a7,7,0,0,1,8.43-3.19l-6.73,12A7,7,0,0,1,50.93,53.32Zm3.62,10,6.76-12.08a7,7,0,0,1-6.76,12.08ZM67.93,85.2a7.39,7.39,0,1,1,7.38-7.39A7.39,7.39,0,0,1,67.93,85.2ZM81.18,63.66a7.39,7.39,0,1,1,7.38-7.39A7.39,7.39,0,0,1,81.18,63.66Z"/><path class="cls-2" d="M3.21,56.13h0a52.92,52.92,0,0,1,105.84,0h3.21A56.13,56.13,0,0,0,0,56.13H3.21Z"/><path class="cls-1" d="M56.13,109.05A53,53,0,0,1,3.21,56.13H0a56.13,56.13,0,0,0,112.26,0h-3.21A53,53,0,0,1,56.13,109.05Z"/></g></g></svg>