<svg xmlns="http://www.w3.org/2000/svg" viewBox="0 0 112.26 112.26"><defs><style>.cls-1{fill:#d1d2d2;}.cls-2,.cls-3{fill:#1578b8;}.cls-3{fill-rule:evenodd;}</style></defs><title>ft-shield</title><g id="Layer_2" data-name="Layer 2"><g id="Layer_1-2" data-name="Layer 1"><path class="cls-1" d="M3.21,56.13h0a52.92,52.92,0,0,1,105.84,0h3.21A56.13,56.13,0,0,0,0,56.13H3.21Z"/><path class="cls-2" d="M56.13,109.05A53,53,0,0,1,3.21,56.13H0a56.13,56.13,0,0,0,112.26,0h-3.21A53,53,0,0,1,56.13,109.05Z"/><path class="cls-3" d="M27.44,27.36a50.61,50.61,0,0,0,13.23-.11,61.41,61.41,0,0,0,14.21-3.81l1.35-.52,1.34.52a61.41,61.41,0,0,0,14.21,3.81A50.61,50.61,0,0,0,85,27.36l4.52-.56-.06,5.09c-.24,21.6-3.73,36-9.34,45.58-5.89,10.1-13.93,14.94-23,17.29l-.91.24-.92-.24c-9.06-2.35-17.1-7.19-23-17.29-5.61-9.62-9.1-24-9.34-45.58l-.06-5.09,4.52.56ZM56.23,59.57H78.42A112.68,112.68,0,0,0,81.3,36.69a58.33,58.33,0,0,1-10.5-.5,68.17,68.17,0,0,1-14.57-3.75V59.57Zm0,26.18V59.57H34a49.68,49.68,0,0,0,5,13A27.64,27.64,0,0,0,56.23,85.75Z"/></g></g></svg>