<svg xmlns="http://www.w3.org/2000/svg" viewBox="0 0 112.26 112.26"><defs><style>.cls-1{fill:#d1d2d2;}.cls-2,.cls-3{fill:#1578b8;}.cls-3{font-size:56.08px;font-family:FjallaOne-Regular, Fjalla One;}</style></defs><title>ft-twenty-four</title><g id="Layer_2" data-name="Layer 2"><g id="Layer_1-2" data-name="Layer 1"><path class="cls-1" d="M3.21,56.13h0a52.92,52.92,0,0,1,105.84,0h3.21A56.13,56.13,0,0,0,0,56.13H3.21Z"/><path class="cls-2" d="M56.13,109.05A53,53,0,0,1,3.21,56.13H0a56.13,56.13,0,0,0,112.26,0h-3.21A53,53,0,0,1,56.13,109.05Z"/><path class="cls-2" d="M56.13,12.87A42.73,42.73,0,0,0,43,14.94L44.64,17a40.61,40.61,0,1,1-14.13,7.53L32.9,28l2.2-4.62,2.19-4.62-5.09.41-5.1.41,2,2.92a42.85,42.85,0,1,0,27-9.63Z"/><text class="cls-3" transform="translate(27.54 78.07)">24</text></g></g></svg>