<svg xmlns="http://www.w3.org/2000/svg" viewBox="0 0 112.26 112.26"><defs><style>.cls-1{fill:#d1d2d2;}.cls-2,.cls-3{fill:#1578b8;}.cls-3{fill-rule:evenodd;}</style></defs><title>ft-umbrella</title><g id="Layer_2" data-name="Layer 2"><g id="Layer_1-2" data-name="Layer 1"><path class="cls-1" d="M3.21,56.13h0a52.92,52.92,0,0,1,105.84,0h3.21A56.13,56.13,0,0,0,0,56.13H3.21Z"/><path class="cls-2" d="M56.13,109.05A53,53,0,0,1,3.21,56.13H0a56.13,56.13,0,0,0,112.26,0h-3.21A53,53,0,0,1,56.13,109.05Z"/><path class="cls-3" d="M58.55,72.14V51.23a30.58,30.58,0,0,1,8.23,3.27c8.12-3.68,16.82-4.81,26.92,0-2-17-16.79-30.4-35.15-31.68V18.26h-6.4v4.61C34.08,24.41,19.64,37.7,17.62,54.5c8-4.21,16-4.84,24,0a22.24,22.24,0,0,1,10.56-3.77V86.9a2.11,2.11,0,0,0,.47,1.28l.45.46c.38.39.76.74,1.14,1.06a13.89,13.89,0,0,0,10.53,3.39,15.26,15.26,0,0,0,9.19-4.38c.36-.35.68-.7,1-1.06L70,83.53c-.19.23-.39.44-.58.63a9,9,0,0,1-5.31,2.58A7.64,7.64,0,0,1,58.55,85V72.14ZM35,46.57l-9-.85C30.46,37.88,37.43,31.4,48.13,27Z"/></g></g></svg>