<svg width="164" height="20" viewBox="0 0 1644 202" fill="none" xmlns="http://www.w3.org/2000/svg">
<path d="M106 6.23185C97.6 20.4319 88.4 35.0619 72.9 43.8619C66.065 47.7819 49.752 51.4948 33.6 52.4618C22.3935 53.0208 11.1606 52.7199 0 51.5619V201.232H1643L1643.3 115.432C1643.4 68.3319 1643.2 51.6119 1643.2 51.6119C1635.62 50.4841 1628.11 48.9317 1620.7 46.9618C1610.76 44.3128 1599.41 40.0208 1591.5 37.1618C1571.11 29.7988 1547.64 18.8709 1534.9 10.0319C1529.8 6.63186 1524.9 3.73185 1523.9 3.73185C1523 3.73185 1516.9 7.73185 1510.4 12.6318C1491.5 26.9318 1474.7 35.0319 1453 40.2319C1438.7 43.7319 1428.5 44.7319 1408 44.7319C1390.7 44.7319 1389.3 44.5319 1371.5 40.7319C1350.3 36.1319 1344.5 34.3319 1328.5 27.5319C1322.2 24.9319 1316.5 22.7319 1315.8 22.7319C1315.1 22.7319 1310.6 26.0318 1305.9 30.1318C1295.9 38.7318 1281.7 46.5319 1270 49.9319C1259.3 52.9319 1234.6 53.2319 1221.5 50.4319C1194.7 44.7319 1162.2 31.7319 1136.3 16.4319C1132.3 14.1319 1128.2 11.8319 1127.3 11.5319C1126.3 11.1319 1121.7 12.7319 1115.3 15.9319C1085.4 30.6319 1059 36.7319 1025.7 36.7319C985.7 36.7319 945.7 25.7319 914.3 6.03186C912.547 4.87172 910.572 4.0885 908.5 3.73185C907.4 3.73185 900.1 8.43185 892.2 14.1318C875.1 26.6318 864.1 33.0319 848.1 39.8319C821.8 50.9319 798.6 55.6319 766 56.4319C750.8 56.8319 743 56.5319 733.5 55.3319C693.4 50.0319 653.2 35.6319 616.3 13.4319L603.6 5.73185L592.3 17.0319C579.4 29.9319 571.1 35.1319 555.6 40.3319C541.7 45.0319 528.2 46.7319 505.8 46.7319C465.3 46.7319 423.4 38.0319 369.6 18.5319L350.2 11.5319L346.3 16.1318C335.7 28.4318 317.6 37.1319 293.5 41.3319C280.8 43.5319 254.9 42.8319 238 39.8319C207.1 34.3319 161.3 20.6319 129 7.23185C120.2 3.53185 112.3 0.331857 111.4 0.0318571C110.3 -0.268143 108.7 1.53185 106 6.23185Z" fill="currentColor"/>
</svg>
