<svg xmlns="http://www.w3.org/2000/svg" viewBox="0 0 112.26 112.26"><defs><style>.cls-1{fill:#1578b8;}.cls-2{fill:#d1d2d2;}</style></defs><title>ft-water</title><g id="Layer_2" data-name="Layer 2"><g id="Layer_1-2" data-name="Layer 1"><path class="cls-1" d="M81.91,60.52h0C76.5,44.29,60,24,56.51,19.86c-.38-.46-.66-.25-.66-.25-3,3.52-20.1,24.35-25.63,40.93a39.12,39.12,0,0,0-.81,8.83c.05.49.11,1,.19,1.55l0,.16h0c1.17,7.34,5.6,17.55,20.85,20.35a36.43,36.43,0,0,0,7.55.51c18.2-1.75,23.24-13,24.49-20.85a0,0,0,0,1,0,0c0-.18.07-.38.1-.59s0-.25,0-.38C83.13,66.27,81.91,60.52,81.91,60.52ZM44.41,57c.65,9.09-4,6.93-4.09,6.95h0C29.86,55.4,54,30.54,54,30.54,44.91,42.9,44.48,57,44.41,57Z"/><path class="cls-2" d="M3.21,56.13h0a52.92,52.92,0,0,1,105.84,0h3.21A56.13,56.13,0,0,0,0,56.13H3.21Z"/><path class="cls-1" d="M56.13,109.05A53,53,0,0,1,3.21,56.13H0a56.13,56.13,0,0,0,112.26,0h-3.21A53,53,0,0,1,56.13,109.05Z"/></g></g></svg>