<svg xmlns="http://www.w3.org/2000/svg" viewBox="0 0 112.26 112.26"><defs><style>.cls-1{fill:#d1d2d2;}.cls-2{fill:#1578b8;}</style></defs><title>ft-wallet</title><g id="Layer_2" data-name="Layer 2"><g id="Layer_1-2" data-name="Layer 1"><path class="cls-1" d="M3.21,56.13h0a52.92,52.92,0,0,1,105.84,0h3.21A56.13,56.13,0,0,0,0,56.13H3.21Z"/><path class="cls-2" d="M56.13,109.05A53,53,0,0,1,3.21,56.13H0a56.13,56.13,0,0,0,112.26,0h-3.21A53,53,0,0,1,56.13,109.05Z"/><path class="cls-2" d="M67.08,49.24a3.57,3.57,0,0,0,3.09-5.38,3.67,3.67,0,0,0-4.89-1.29,3.58,3.58,0,0,0,1.8,6.67Zm-2.3-4.18a2.34,2.34,0,0,1,1.1-1.45,2.38,2.38,0,1,1,2.39,4.11A2.43,2.43,0,0,1,65,46.86,2.37,2.37,0,0,1,64.78,45.06Z"/><path class="cls-2" d="M86.44,51.56,71.51,25.91a2,2,0,0,0-2.71-.71L36.28,44.13h-.85c-.43,0-4.29-.11-6.87,2.36a7.22,7.22,0,0,0-2.13,5.34V82.19a2,2,0,0,0,2,2H68a5,5,0,0,0,4-2,8.54,8.54,0,0,0,7-8.33V58.17l6.7-3.89a2,2,0,0,0,.92-1.21A2,2,0,0,0,86.44,51.56ZM43.55,47.48,65.23,34.86a3.65,3.65,0,0,0,4.51,1l7.14,12.26a3.59,3.59,0,0,0-1.32,4.45l-2.63,1.53a5.38,5.38,0,0,1,.07.69,5,5,0,0,0-5-5h-5a9.09,9.09,0,0,0-.66-1.46,8.55,8.55,0,0,0-15.5,1.46H43.72A3.59,3.59,0,0,0,43.55,47.48Zm21,9.44h-.28a.6.6,0,0,1,0-1.2h.28A1.42,1.42,0,0,1,66,57.14v.42a.6.6,0,0,1-1.2,0v-.42A.22.22,0,0,0,64.55,56.92ZM64.73,77l0-1.6a.6.6,0,0,1,1.2,0v1.47a1.43,1.43,0,0,1-.27.84.6.6,0,0,1-.49.24.66.66,0,0,1-.35-.11A.6.6,0,0,1,64.73,77ZM34.06,59.24a.6.6,0,0,1,.6.61v2a.6.6,0,1,1-1.2,0v-2A.6.6,0,0,1,34.06,59.24Zm-.6-1.38V56.32a.6.6,0,0,1,.6-.6h.44a.6.6,0,0,1,.16,1.18v1a.6.6,0,1,1-1.2,0Zm.6,5.35a.6.6,0,0,1,.6.61v2a.6.6,0,1,1-1.2,0v-2A.6.6,0,0,1,34.06,63.21Zm0,4a.6.6,0,0,1,.6.6v2a.6.6,0,1,1-1.2,0v-2A.6.6,0,0,1,34.06,67.18Zm0,4a.6.6,0,0,1,.6.6v2a.6.6,0,1,1-1.2,0v-2A.6.6,0,0,1,34.06,71.15Zm0,4a.6.6,0,0,1,.6.6v1.39h.89a.6.6,0,0,1,0,1.2H34.06a.6.6,0,0,1-.6-.6v-2A.6.6,0,0,1,34.06,75.12Zm24.26-18.2h-2a.6.6,0,0,1,0-1.2h2a.6.6,0,0,1,0,1.2Zm1,20.19a.6.6,0,1,1,0,1.2h-2a.6.6,0,1,1,0-1.2Zm-3.37.6a.6.6,0,0,1-.6.6h-2a.6.6,0,1,1,0-1.2h2A.6.6,0,0,1,56,77.71ZM54.35,56.92h-2a.6.6,0,0,1,0-1.2h2a.6.6,0,0,1,0,1.2ZM52,77.71a.6.6,0,0,1-.6.6h-2a.6.6,0,1,1,0-1.2h2A.6.6,0,0,1,52,77.71ZM50.38,56.92h-2a.6.6,0,0,1,0-1.2h2a.6.6,0,1,1,0,1.2ZM48.06,77.71a.6.6,0,0,1-.6.6h-2a.6.6,0,1,1,0-1.2h2A.6.6,0,0,1,48.06,77.71ZM46.41,56.92h-2a.6.6,0,0,1,0-1.2h2a.6.6,0,0,1,0,1.2ZM44.09,77.71a.6.6,0,0,1-.6.6h-2a.6.6,0,1,1,0-1.2h2A.6.6,0,0,1,44.09,77.71Zm19.25.6h-2a.6.6,0,1,1,0-1.2h2a.6.6,0,0,1,0,1.2Zm-3-21.39a.6.6,0,0,1,0-1.2h2a.6.6,0,0,1,0,1.2Zm-9.5-7.07a4.21,4.21,0,0,1,.93-1.14L51,47.38l1.37-.8.72,1.23a5.87,5.87,0,0,1,2.32-.73l.5,1.83a5.11,5.11,0,0,0-2.31.69,3.15,3.15,0,0,0-.33.25ZM43,56.32a.6.6,0,0,1-.6.6h-2a.6.6,0,1,1,0-1.2h2A.6.6,0,0,1,43,56.32ZM40.12,77.71a.6.6,0,0,1-.6.6h-2a.6.6,0,1,1,0-1.2h2A.6.6,0,0,1,40.12,77.71ZM38.47,56.92h-2a.6.6,0,1,1,0-1.2h2a.6.6,0,0,1,0,1.2Zm-5.8-8.36.75,1.29H30.9a2,2,0,0,1,.4-.48A4,4,0,0,1,32.67,48.56ZM75.06,73.85A4.32,4.32,0,0,1,73,77.53V71.25a3.15,3.15,0,0,1-1,.18H66v2a.6.6,0,1,1-1.2,0v-2a.9.9,0,0,1,0-.16,4.86,4.86,0,0,1-3.19-4.84V63.83a5.39,5.39,0,0,1,1.59-3.91,5.2,5.2,0,0,1,.59-.46h0a6.15,6.15,0,0,0-.58.46,3.73,3.73,0,0,1,2.54-1.08H72c.84,0,.84-.1.84-.92h2.72l-.46.27v2.54a5.08,5.08,0,0,1-1,.1H66.59a3,3,0,0,0-3,3v2.62a3,3,0,0,0,3,3h7.49a2.36,2.36,0,0,0,1-.2v4.6ZM69.3,65.09a1.49,1.49,0,1,1-1.49-1.49A1.49,1.49,0,0,1,69.3,65.09Zm3.7-8v-1.6l3.68-2.14c.14-.08.19-.29.23-.45a.81.81,0,0,0-.13-.54,2.37,2.37,0,0,1,.85-3.24A1.83,1.83,0,0,1,78,49a.61.61,0,0,0,.29-.87L70.46,34.75a.61.61,0,0,0-.43-.28.69.69,0,0,0-.5.14,2.07,2.07,0,0,1-.24.17,2.43,2.43,0,0,1-3.24-.85l-.52.27h0l.44-.42a.58.58,0,0,0-.36-.31.64.64,0,0,0-.47.06L42.41,46.75a.66.66,0,0,0-.23.45.83.83,0,0,0,.14.53,2.37,2.37,0,0,1,.13,2.12H38l-.93-1.6,32-18.62L82,51.84Z"/></g></g></svg>