<svg xmlns="http://www.w3.org/2000/svg" viewBox="0 0 1077 1077"><defs><style>.cls-1{fill:#fff;}.cls-2{fill:#2e71ac;}</style></defs><title>icon</title><g id="Layer_2" data-name="Layer 2"><g id="App_Icon_Kit_A" data-name="App Icon Kit A"><g id="App_Icon_and_Badge_-_Main" data-name="App Icon and Badge - Main"><circle class="cls-1" cx="538.5" cy="538.5" r="538.5"/><path class="cls-2" d="M905.66,842V676.13c-26.12-7.1-53.73-16-83.44-26.74l-33.75-12.18-6.79,8c-18.44,21.39-49.93,36.53-91.85,43.84-22.1,3.82-67.15,2.61-96.55-2.61-53.76-9.57-133.44-33.41-189.63-56.72-15.31-6.43-29-12-30.62-12.52-1.91-.52-4.69,2.61-9.39,10.78-14.62,24.71-34.45,44-61.41,59.33-24.88,14.26-55.15,23.66-99.51,31l-23.49,3.83V842Z"/><path d="M293.77,657.16A224.58,224.58,0,0,0,333,628.53l9.74-11.38V575.29c0-40.53.18-44.36,3.13-47,2.79-2.61,8-3,36.54-3,31.14,0,33.57-.17,36.88-3.47s3.48-5.75,3.48-65.24-.18-61.94-3.48-65.24-5.74-3.48-38.1-3.48c-29.92,0-34.79-.35-36.88-3-1.74-2.09-2.44-8.7-2.44-24.35,0-19.49.35-21.92,3.31-24.18,2.78-1.92,15.48-2.44,71.67-2.44,37.58,0,69.59-.52,71.16-1,7.13-2.79,7.82-8.18,7.82-68.2,0-53.93-.17-57.58-3.3-61.41l-3.31-4.18-151.52-.52c-150-.35-151.53-.35-155,3.13s-3.48,4.88-3.48,246.17V687.41l23.49-3.82C242.18,677.09,270.48,668.93,293.77,657.16Z"/><path d="M520.63,335l49.93.52,50.1.35L621,492.13c.48,48.41,1.8,111.69,2.45,163.25,24.58,1.86,51,1.64,66.37-1,41.92-7.31,73.41-22.44,91.85-43.84l2.73-3.21c0-41.36-.72-96.47-.56-135.53.17-92.55.87-131.87,2.26-133.43,1.56-1.92,12.87-2.44,51.84-2.79l49.76-.52.52-67c.17-36.88,0-68-.52-69.41-.87-2.09-19-2.26-126.48-1.39-69.06.69-151.53,1.22-183.54,1.22H519.76l.35,68.19Z"/><path class="cls-2" d="M876.06,881H209.26c-16.35,0-30.6-13.26-30.6-29.6l1-110.4h726v110.4A29.6,29.6,0,0,1,876.06,881Z"/></g></g></g></svg>